<mxfile host="app.diagrams.net" modified="2024-04-05T17:03:36.816Z" agent="Mozilla/5.0 (Windows NT 10.0; Win64; x64) AppleWebKit/537.36 (KHTML, like Gecko) Chrome/123.0.0.0 Safari/537.36" etag="LuoLLonzbnyYckHHrXWP" version="24.2.2" type="device">
  <diagram name="Page-1" id="zLyyTN1-hnsohDQ8qUyM">
    <mxGraphModel dx="2163" dy="769" grid="1" gridSize="10" guides="1" tooltips="1" connect="1" arrows="1" fold="1" page="1" pageScale="1" pageWidth="850" pageHeight="1100" math="0" shadow="0">
      <root>
        <mxCell id="0" />
        <mxCell id="1" parent="0" />
        <mxCell id="4GpoEnjN8ViW_0GKFnAI-1" value="Employees" style="shape=umlActor;verticalLabelPosition=bottom;verticalAlign=top;html=1;outlineConnect=0;" parent="1" vertex="1">
          <mxGeometry x="770" y="510" width="50" height="80" as="geometry" />
        </mxCell>
        <mxCell id="4GpoEnjN8ViW_0GKFnAI-2" value="Admin" style="shape=umlActor;verticalLabelPosition=bottom;verticalAlign=top;html=1;outlineConnect=0;" parent="1" vertex="1">
          <mxGeometry x="760" y="200" width="50" height="80" as="geometry" />
        </mxCell>
        <mxCell id="4GpoEnjN8ViW_0GKFnAI-3" value="Customer" style="shape=umlActor;verticalLabelPosition=bottom;verticalAlign=top;html=1;outlineConnect=0;" parent="1" vertex="1">
          <mxGeometry x="-830" y="357.5" width="50" height="82.5" as="geometry" />
        </mxCell>
        <mxCell id="4GpoEnjN8ViW_0GKFnAI-7" value="" style="whiteSpace=wrap;html=1;aspect=fixed;strokeColor=#000000;" parent="1" vertex="1">
          <mxGeometry x="-737.23" y="120" width="1470" height="1470" as="geometry" />
        </mxCell>
        <mxCell id="4GpoEnjN8ViW_0GKFnAI-8" value="2. Είσοδος στο σύστημα (login)" style="ellipse;whiteSpace=wrap;html=1;" parent="1" vertex="1">
          <mxGeometry x="-121" y="250" width="130" height="90" as="geometry" />
        </mxCell>
        <mxCell id="4GpoEnjN8ViW_0GKFnAI-11" value="" style="endArrow=none;html=1;rounded=0;entryX=1;entryY=0.5;entryDx=0;entryDy=0;exitX=0;exitY=0.3333333333333333;exitDx=0;exitDy=0;exitPerimeter=0;" parent="1" source="4GpoEnjN8ViW_0GKFnAI-1" target="4GpoEnjN8ViW_0GKFnAI-8" edge="1">
          <mxGeometry width="50" height="50" relative="1" as="geometry">
            <mxPoint x="280" y="280" as="sourcePoint" />
            <mxPoint x="330" y="230" as="targetPoint" />
          </mxGeometry>
        </mxCell>
        <mxCell id="4GpoEnjN8ViW_0GKFnAI-12" value="" style="endArrow=none;html=1;rounded=0;entryX=0;entryY=0.3333333333333333;entryDx=0;entryDy=0;entryPerimeter=0;exitX=1;exitY=0.5;exitDx=0;exitDy=0;strokeColor=#3333FF;" parent="1" source="4GpoEnjN8ViW_0GKFnAI-8" target="4GpoEnjN8ViW_0GKFnAI-2" edge="1">
          <mxGeometry width="50" height="50" relative="1" as="geometry">
            <mxPoint x="280" y="280" as="sourcePoint" />
            <mxPoint x="330" y="230" as="targetPoint" />
            <Array as="points" />
          </mxGeometry>
        </mxCell>
        <mxCell id="4GpoEnjN8ViW_0GKFnAI-14" value="1. Κλείσιμο ραντεβού για&amp;nbsp;επιδιόρθωση, αλλαγή ελαστικών και αλλαγή μπαταρίας" style="ellipse;whiteSpace=wrap;html=1;" parent="1" vertex="1">
          <mxGeometry x="-131" y="130" width="150" height="100" as="geometry" />
        </mxCell>
        <mxCell id="4GpoEnjN8ViW_0GKFnAI-17" value="&#xa;&lt;span style=&quot;color: rgb(5, 5, 5); font-family: &amp;quot;Segoe UI Historic&amp;quot;, &amp;quot;Segoe UI&amp;quot;, Helvetica, Arial, sans-serif; font-size: 15px; font-style: normal; font-variant-ligatures: normal; font-variant-caps: normal; font-weight: 400; letter-spacing: normal; orphans: 2; text-align: left; text-indent: 0px; text-transform: none; widows: 2; word-spacing: 0px; -webkit-text-stroke-width: 0px; background-color: rgb(240, 240, 240); text-decoration-thickness: initial; text-decoration-style: initial; text-decoration-color: initial; float: none; display: inline !important;&quot;&gt;Tyre Service On The Spot&lt;/span&gt;&#xa;&#xa;" style="text;html=1;align=center;verticalAlign=middle;whiteSpace=wrap;rounded=0;" parent="1" vertex="1">
          <mxGeometry x="-136" y="90" width="160" height="30" as="geometry" />
        </mxCell>
        <mxCell id="4GpoEnjN8ViW_0GKFnAI-18" value="&lt;p class=&quot;MsoNormal&quot;&gt;3.3. Ανάθεση&lt;br&gt;περιστατικού σε υπάλληλο&lt;br&gt;(in progress)&lt;/p&gt;" style="ellipse;whiteSpace=wrap;html=1;" parent="1" vertex="1">
          <mxGeometry x="-121.01" y="620" width="131.25" height="70" as="geometry" />
        </mxCell>
        <mxCell id="4GpoEnjN8ViW_0GKFnAI-21" value="" style="endArrow=none;html=1;rounded=0;exitX=1;exitY=0.3333333333333333;exitDx=0;exitDy=0;exitPerimeter=0;entryX=0;entryY=0.5;entryDx=0;entryDy=0;" parent="1" source="4GpoEnjN8ViW_0GKFnAI-3" target="4GpoEnjN8ViW_0GKFnAI-14" edge="1">
          <mxGeometry width="50" height="50" relative="1" as="geometry">
            <mxPoint x="120" y="280" as="sourcePoint" />
            <mxPoint x="170" y="230" as="targetPoint" />
          </mxGeometry>
        </mxCell>
        <mxCell id="4GpoEnjN8ViW_0GKFnAI-24" value="" style="endArrow=none;html=1;rounded=0;entryX=0;entryY=0.3333333333333333;entryDx=0;entryDy=0;entryPerimeter=0;exitX=1;exitY=0.5;exitDx=0;exitDy=0;strokeColor=#3333FF;" parent="1" source="4GpoEnjN8ViW_0GKFnAI-14" target="4GpoEnjN8ViW_0GKFnAI-2" edge="1">
          <mxGeometry width="50" height="50" relative="1" as="geometry">
            <mxPoint x="250" y="280" as="sourcePoint" />
            <mxPoint x="300" y="230" as="targetPoint" />
          </mxGeometry>
        </mxCell>
        <mxCell id="P3JwJVudoR9U04ZwqeH6-2" value="" style="endArrow=none;html=1;rounded=0;exitX=1;exitY=0.5;exitDx=0;exitDy=0;entryX=0;entryY=0.3333333333333333;entryDx=0;entryDy=0;entryPerimeter=0;strokeColor=#3333FF;" parent="1" source="4GpoEnjN8ViW_0GKFnAI-18" target="4GpoEnjN8ViW_0GKFnAI-2" edge="1">
          <mxGeometry width="50" height="50" relative="1" as="geometry">
            <mxPoint x="530" y="570" as="sourcePoint" />
            <mxPoint x="650" y="180" as="targetPoint" />
          </mxGeometry>
        </mxCell>
        <mxCell id="P3JwJVudoR9U04ZwqeH6-8" value="3.5. Προβολή τελικής αναφοράς" style="ellipse;whiteSpace=wrap;html=1;" parent="1" vertex="1">
          <mxGeometry x="-115.36000000000001" y="790" width="120" height="80" as="geometry" />
        </mxCell>
        <mxCell id="P3JwJVudoR9U04ZwqeH6-9" value="" style="endArrow=none;html=1;rounded=0;entryX=1;entryY=0.5;entryDx=0;entryDy=0;exitX=0;exitY=0.3333333333333333;exitDx=0;exitDy=0;exitPerimeter=0;strokeColor=#3333FF;" parent="1" source="4GpoEnjN8ViW_0GKFnAI-2" target="P3JwJVudoR9U04ZwqeH6-8" edge="1">
          <mxGeometry width="50" height="50" relative="1" as="geometry">
            <mxPoint x="490" y="950" as="sourcePoint" />
            <mxPoint x="540" y="900" as="targetPoint" />
          </mxGeometry>
        </mxCell>
        <mxCell id="P3JwJVudoR9U04ZwqeH6-10" value="" style="endArrow=none;html=1;rounded=0;entryX=1;entryY=0.5;entryDx=0;entryDy=0;exitX=0;exitY=0.3333333333333333;exitDx=0;exitDy=0;exitPerimeter=0;" parent="1" source="4GpoEnjN8ViW_0GKFnAI-1" target="4GpoEnjN8ViW_0GKFnAI-18" edge="1">
          <mxGeometry width="50" height="50" relative="1" as="geometry">
            <mxPoint x="500" y="960" as="sourcePoint" />
            <mxPoint x="550" y="910" as="targetPoint" />
          </mxGeometry>
        </mxCell>
        <mxCell id="uDHLL1LTLcCa-glu9I0z-1" value="3.1. Προβολή/Επεξεργασία περιστατικού" style="ellipse;whiteSpace=wrap;html=1;" parent="1" vertex="1">
          <mxGeometry x="-120.00000000000001" y="440" width="120" height="80" as="geometry" />
        </mxCell>
        <mxCell id="uDHLL1LTLcCa-glu9I0z-3" value="" style="endArrow=none;html=1;rounded=0;entryX=0;entryY=0.3333333333333333;entryDx=0;entryDy=0;entryPerimeter=0;exitX=1;exitY=0.5;exitDx=0;exitDy=0;strokeColor=#3333FF;" parent="1" source="uDHLL1LTLcCa-glu9I0z-1" target="4GpoEnjN8ViW_0GKFnAI-2" edge="1">
          <mxGeometry width="50" height="50" relative="1" as="geometry">
            <mxPoint x="440" y="830" as="sourcePoint" />
            <mxPoint x="490" y="780" as="targetPoint" />
          </mxGeometry>
        </mxCell>
        <mxCell id="8xpcpbdW-NWMG5Hukm3H-2" value="&lt;p class=&quot;MsoNormal&quot;&gt;3.0. Λίστα&lt;br&gt;περιστατικών (με φίλτρα)&lt;/p&gt;" style="ellipse;whiteSpace=wrap;html=1;" parent="1" vertex="1">
          <mxGeometry x="-121" y="360" width="131.25" height="70" as="geometry" />
        </mxCell>
        <mxCell id="8xpcpbdW-NWMG5Hukm3H-3" value="3.2. Διαγραφή&amp;nbsp; &amp;nbsp;περιστατικού" style="ellipse;whiteSpace=wrap;html=1;" parent="1" vertex="1">
          <mxGeometry x="-115.37000000000002" y="530" width="120" height="80" as="geometry" />
        </mxCell>
        <mxCell id="8xpcpbdW-NWMG5Hukm3H-4" value="&lt;p class=&quot;MsoNormal&quot;&gt;&lt;font style=&quot;font-size: 11px;&quot;&gt;3.4. Αλλαγή κατάστασης περιστατικού σε &#39;finalized&#39;&lt;/font&gt;&lt;/p&gt;" style="ellipse;whiteSpace=wrap;html=1;" parent="1" vertex="1">
          <mxGeometry x="-120.99000000000001" y="710" width="131.25" height="70" as="geometry" />
        </mxCell>
        <mxCell id="8xpcpbdW-NWMG5Hukm3H-5" value="5.0. Λίστα υπαλλήλων" style="ellipse;whiteSpace=wrap;html=1;" parent="1" vertex="1">
          <mxGeometry x="-115.36" y="1100" width="136.25" height="80" as="geometry" />
        </mxCell>
        <mxCell id="8xpcpbdW-NWMG5Hukm3H-6" value="5.1. Προβολή/Επεξεργασία υπαλλήλου" style="ellipse;whiteSpace=wrap;html=1;" parent="1" vertex="1">
          <mxGeometry x="-115.34" y="1200" width="136.25" height="80" as="geometry" />
        </mxCell>
        <mxCell id="8xpcpbdW-NWMG5Hukm3H-7" value="5.2. Διαγραφή λογαριασμού υπαλλήλου" style="ellipse;whiteSpace=wrap;html=1;" parent="1" vertex="1">
          <mxGeometry x="-112.23" y="1300" width="136.25" height="80" as="geometry" />
        </mxCell>
        <mxCell id="8xpcpbdW-NWMG5Hukm3H-8" value="6. Προβολή στατιστικών" style="ellipse;whiteSpace=wrap;html=1;" parent="1" vertex="1">
          <mxGeometry x="-112.23" y="1490" width="136.25" height="80" as="geometry" />
        </mxCell>
        <mxCell id="8xpcpbdW-NWMG5Hukm3H-10" value="" style="endArrow=none;html=1;rounded=0;entryX=0;entryY=0.3333333333333333;entryDx=0;entryDy=0;entryPerimeter=0;exitX=1;exitY=0.5;exitDx=0;exitDy=0;strokeColor=#3333FF;" parent="1" source="8xpcpbdW-NWMG5Hukm3H-2" target="4GpoEnjN8ViW_0GKFnAI-2" edge="1">
          <mxGeometry width="50" height="50" relative="1" as="geometry">
            <mxPoint x="-300" y="470" as="sourcePoint" />
            <mxPoint x="-250" y="420" as="targetPoint" />
          </mxGeometry>
        </mxCell>
        <mxCell id="8xpcpbdW-NWMG5Hukm3H-11" value="" style="endArrow=none;html=1;rounded=0;entryX=1;entryY=0.5;entryDx=0;entryDy=0;exitX=0;exitY=0.3333333333333333;exitDx=0;exitDy=0;exitPerimeter=0;strokeColor=#3333FF;" parent="1" source="4GpoEnjN8ViW_0GKFnAI-2" target="8xpcpbdW-NWMG5Hukm3H-3" edge="1">
          <mxGeometry width="50" height="50" relative="1" as="geometry">
            <mxPoint x="-300" y="470" as="sourcePoint" />
            <mxPoint x="-250" y="420" as="targetPoint" />
          </mxGeometry>
        </mxCell>
        <mxCell id="8xpcpbdW-NWMG5Hukm3H-12" value="" style="endArrow=none;html=1;rounded=0;entryX=1;entryY=0.5;entryDx=0;entryDy=0;exitX=0;exitY=0.3333333333333333;exitDx=0;exitDy=0;exitPerimeter=0;strokeColor=#3333FF;" parent="1" source="4GpoEnjN8ViW_0GKFnAI-2" target="8xpcpbdW-NWMG5Hukm3H-4" edge="1">
          <mxGeometry width="50" height="50" relative="1" as="geometry">
            <mxPoint x="-300" y="470" as="sourcePoint" />
            <mxPoint x="-250" y="420" as="targetPoint" />
          </mxGeometry>
        </mxCell>
        <mxCell id="8xpcpbdW-NWMG5Hukm3H-13" value="4.0. Λίστα ανατεθειμένων περιστατικών υπαλλήλου" style="ellipse;whiteSpace=wrap;html=1;" parent="1" vertex="1">
          <mxGeometry x="-115.34000000000002" y="890" width="120" height="80" as="geometry" />
        </mxCell>
        <mxCell id="8xpcpbdW-NWMG5Hukm3H-14" value="4.1. Αλλαγή κατάστασης περιστατικού σε &#39;completed&#39;" style="ellipse;whiteSpace=wrap;html=1;" parent="1" vertex="1">
          <mxGeometry x="-112.23000000000002" y="980" width="120" height="80" as="geometry" />
        </mxCell>
        <mxCell id="8xpcpbdW-NWMG5Hukm3H-15" value="" style="endArrow=none;html=1;rounded=0;entryX=0;entryY=0.3333333333333333;entryDx=0;entryDy=0;entryPerimeter=0;exitX=1;exitY=0.5;exitDx=0;exitDy=0;" parent="1" source="8xpcpbdW-NWMG5Hukm3H-14" target="4GpoEnjN8ViW_0GKFnAI-1" edge="1">
          <mxGeometry width="50" height="50" relative="1" as="geometry">
            <mxPoint x="-300" y="470" as="sourcePoint" />
            <mxPoint x="-250" y="420" as="targetPoint" />
          </mxGeometry>
        </mxCell>
        <mxCell id="8xpcpbdW-NWMG5Hukm3H-16" value="" style="endArrow=none;html=1;rounded=0;entryX=0;entryY=0.3333333333333333;entryDx=0;entryDy=0;entryPerimeter=0;exitX=1;exitY=0.5;exitDx=0;exitDy=0;" parent="1" source="8xpcpbdW-NWMG5Hukm3H-13" target="4GpoEnjN8ViW_0GKFnAI-1" edge="1">
          <mxGeometry width="50" height="50" relative="1" as="geometry">
            <mxPoint x="-290" y="480" as="sourcePoint" />
            <mxPoint x="-240" y="430" as="targetPoint" />
          </mxGeometry>
        </mxCell>
        <mxCell id="8xpcpbdW-NWMG5Hukm3H-17" value="" style="endArrow=none;html=1;rounded=0;entryX=1;entryY=0.5;entryDx=0;entryDy=0;exitX=0;exitY=0.3333333333333333;exitDx=0;exitDy=0;exitPerimeter=0;strokeColor=#3333FF;" parent="1" source="4GpoEnjN8ViW_0GKFnAI-2" target="8xpcpbdW-NWMG5Hukm3H-5" edge="1">
          <mxGeometry width="50" height="50" relative="1" as="geometry">
            <mxPoint x="-300" y="470" as="sourcePoint" />
            <mxPoint x="-250" y="420" as="targetPoint" />
          </mxGeometry>
        </mxCell>
        <mxCell id="8xpcpbdW-NWMG5Hukm3H-20" value="" style="endArrow=none;html=1;rounded=0;entryX=0;entryY=0.3333333333333333;entryDx=0;entryDy=0;entryPerimeter=0;exitX=1;exitY=0.5;exitDx=0;exitDy=0;strokeColor=#3333FF;" parent="1" source="8xpcpbdW-NWMG5Hukm3H-6" target="4GpoEnjN8ViW_0GKFnAI-2" edge="1">
          <mxGeometry width="50" height="50" relative="1" as="geometry">
            <mxPoint x="-290" y="480" as="sourcePoint" />
            <mxPoint x="-240" y="430" as="targetPoint" />
          </mxGeometry>
        </mxCell>
        <mxCell id="8xpcpbdW-NWMG5Hukm3H-22" value="" style="endArrow=none;html=1;rounded=0;entryX=0;entryY=0.3333333333333333;entryDx=0;entryDy=0;entryPerimeter=0;exitX=1;exitY=0.5;exitDx=0;exitDy=0;strokeColor=#3333FF;" parent="1" source="8xpcpbdW-NWMG5Hukm3H-8" target="4GpoEnjN8ViW_0GKFnAI-2" edge="1">
          <mxGeometry width="50" height="50" relative="1" as="geometry">
            <mxPoint x="-290" y="480" as="sourcePoint" />
            <mxPoint x="-240" y="430" as="targetPoint" />
          </mxGeometry>
        </mxCell>
        <mxCell id="8xpcpbdW-NWMG5Hukm3H-24" value="" style="endArrow=none;html=1;rounded=0;entryX=1;entryY=0.5;entryDx=0;entryDy=0;exitX=0;exitY=0.3333333333333333;exitDx=0;exitDy=0;exitPerimeter=0;" parent="1" source="4GpoEnjN8ViW_0GKFnAI-1" target="8xpcpbdW-NWMG5Hukm3H-6" edge="1">
          <mxGeometry width="50" height="50" relative="1" as="geometry">
            <mxPoint x="-270" y="500" as="sourcePoint" />
            <mxPoint x="-220" y="450" as="targetPoint" />
          </mxGeometry>
        </mxCell>
        <mxCell id="8xpcpbdW-NWMG5Hukm3H-26" value="" style="endArrow=none;html=1;rounded=0;entryX=1;entryY=0.5;entryDx=0;entryDy=0;exitX=0;exitY=0.3333333333333333;exitDx=0;exitDy=0;exitPerimeter=0;strokeColor=#3333FF;" parent="1" source="4GpoEnjN8ViW_0GKFnAI-2" target="8xpcpbdW-NWMG5Hukm3H-7" edge="1">
          <mxGeometry width="50" height="50" relative="1" as="geometry">
            <mxPoint x="-250" y="520" as="sourcePoint" />
            <mxPoint x="-200" y="470" as="targetPoint" />
          </mxGeometry>
        </mxCell>
        <mxCell id="8xpcpbdW-NWMG5Hukm3H-27" value="" style="endArrow=none;html=1;rounded=0;entryX=1;entryY=0.5;entryDx=0;entryDy=0;exitX=0;exitY=0.3333333333333333;exitDx=0;exitDy=0;exitPerimeter=0;" parent="1" source="4GpoEnjN8ViW_0GKFnAI-1" target="8xpcpbdW-NWMG5Hukm3H-7" edge="1">
          <mxGeometry width="50" height="50" relative="1" as="geometry">
            <mxPoint x="-240" y="530" as="sourcePoint" />
            <mxPoint x="-190" y="480" as="targetPoint" />
          </mxGeometry>
        </mxCell>
        <mxCell id="8xpcpbdW-NWMG5Hukm3H-28" value="" style="endArrow=none;html=1;rounded=0;entryX=1;entryY=0.5;entryDx=0;entryDy=0;exitX=0;exitY=0.3333333333333333;exitDx=0;exitDy=0;exitPerimeter=0;" parent="1" source="4GpoEnjN8ViW_0GKFnAI-1" target="8xpcpbdW-NWMG5Hukm3H-5" edge="1">
          <mxGeometry width="50" height="50" relative="1" as="geometry">
            <mxPoint x="-230" y="540" as="sourcePoint" />
            <mxPoint x="-180" y="490" as="targetPoint" />
          </mxGeometry>
        </mxCell>
        <mxCell id="ODHYvsZHkY0Hml16OrUA-1" value="5.3. Δημιουργία νεου λογαριασμού για υπάλληλο" style="ellipse;whiteSpace=wrap;html=1;" vertex="1" parent="1">
          <mxGeometry x="-112.23" y="1400" width="136.25" height="80" as="geometry" />
        </mxCell>
        <mxCell id="ODHYvsZHkY0Hml16OrUA-2" value="" style="endArrow=none;html=1;rounded=0;entryX=1;entryY=0.5;entryDx=0;entryDy=0;exitX=0;exitY=0.3333333333333333;exitDx=0;exitDy=0;exitPerimeter=0;" edge="1" parent="1" target="ODHYvsZHkY0Hml16OrUA-1">
          <mxGeometry width="50" height="50" relative="1" as="geometry">
            <mxPoint x="780" y="547" as="sourcePoint" />
            <mxPoint x="34" y="1350" as="targetPoint" />
          </mxGeometry>
        </mxCell>
        <mxCell id="ODHYvsZHkY0Hml16OrUA-3" value="" style="endArrow=none;html=1;rounded=0;entryX=1;entryY=0.5;entryDx=0;entryDy=0;exitX=0;exitY=0.3333333333333333;exitDx=0;exitDy=0;exitPerimeter=0;strokeColor=#3333FF;" edge="1" parent="1" target="ODHYvsZHkY0Hml16OrUA-1">
          <mxGeometry width="50" height="50" relative="1" as="geometry">
            <mxPoint x="770" y="237" as="sourcePoint" />
            <mxPoint x="34" y="1350" as="targetPoint" />
          </mxGeometry>
        </mxCell>
      </root>
    </mxGraphModel>
  </diagram>
</mxfile>
